<?xml version="1.0" encoding="utf-8"?>
<!-- Generator: Adobe Illustrator 24.0.0, SVG Export Plug-In . SVG Version: 6.00 Build 0)  -->
<svg version="1.2" baseProfile="tiny" xmlns="http://www.w3.org/2000/svg" xmlns:xlink="http://www.w3.org/1999/xlink" x="0px"
	 y="0px" width="638.92px" height="139.66px" viewBox="0 0 638.92 139.66" xml:space="preserve">
<g id="背景">
</g>
<g id="辅助线">
</g>
<g id="前景">
	<g>
		<g>
			<g>
				<path fill-rule="evenodd" fill="#D11E1B" d="M6.15,129.4c-2.48-2.48-3.71-5.6-3.71-9.39c0-3.49,1.24-6.48,3.71-8.96l30.13-30.13
					c2.48-2.48,3.72-5.61,3.72-9.39c0-3.5-1.24-6.48-3.72-8.95L6.15,32.44c-2.48-2.48-3.71-5.6-3.71-9.39
					c0-3.49,1.24-6.48,3.71-8.96l5.89-5.89c2.48-2.48,5.53-3.78,9.17-3.93c3.64,0.15,6.69,1.46,9.17,3.93l30.14,30.14
					c2.48,2.48,3.71,5.46,3.72,8.95c0,3.78-1.24,6.91-3.72,9.39l-5.68,5.68c-2.48,2.48-3.71,5.46-3.71,8.95
					c0,3.79,1.24,6.91,3.71,9.39l5.89,5.89c2.48,2.48,3.71,5.46,3.71,8.96c0,3.79-1.24,6.91-3.71,9.39l-30.35,30.35
					c-2.48,2.48-5.53,3.64-9.17,3.5c-3.64,0.15-6.7-1.02-9.17-3.5L6.15,129.4z"/>
			</g>
			<g>
				<path fill-rule="evenodd" fill="#267DC1" d="M134.54,12.13c2.48,2.48,3.71,5.6,3.71,9.39c0,3.49-1.24,6.48-3.71,8.96
					l-30.13,30.13c-2.48,2.48-3.72,5.61-3.72,9.39c0,3.5,1.24,6.48,3.72,8.95l30.14,30.14c2.48,2.48,3.71,5.6,3.71,9.39
					c0,3.49-1.24,6.48-3.71,8.96l-5.89,5.89c-2.48,2.48-5.53,3.78-9.17,3.93c-3.64-0.15-6.69-1.46-9.17-3.93L80.17,103.2
					c-2.48-2.48-3.71-5.46-3.72-8.95c0-3.78,1.24-6.91,3.72-9.39l5.68-5.68c2.48-2.48,3.71-5.46,3.71-8.95
					c0-3.79-1.24-6.91-3.71-9.39l-5.89-5.89c-2.48-2.48-3.71-5.46-3.71-8.96c0-3.79,1.24-6.91,3.71-9.39L110.3,6.24
					c2.48-2.48,5.53-3.64,9.17-3.5c3.64-0.15,6.7,1.02,9.17,3.5L134.54,12.13z"/>
			</g>
		</g>
		<g>
			<path fill="#FFFFFF" d="M290.22,31.7c-21.32,0-38.61,17.28-38.61,38.61s17.28,38.61,38.61,38.61c21.32,0,38.61-17.28,38.61-38.61
				S311.54,31.7,290.22,31.7z M290.22,92.34c-12.17,0-22.04-9.87-22.04-22.04c0-12.17,9.87-22.04,22.04-22.04
				s22.04,9.87,22.04,22.04C312.26,82.48,302.39,92.34,290.22,92.34z"/>
			<path fill="#FFFFFF" d="M241.9,32.69h-49.26c-7.87,0-11.74,3.54-11.74,10.38v58.38c0,5.7,2.74,8.55,8.21,8.55
				c5.24,0,7.98-2.85,7.98-8.55V81.49h39c5.13,0,7.75-2.39,7.75-7.3c0-2.05-0.68-3.88-2.05-5.36c-1.37-1.37-3.19-2.05-5.36-2.05
				h-39.34V52.76c0-3.54,2.17-5.36,6.5-5.36h38.42c1.94,0,3.65-0.68,5.25-2.05c1.6-1.25,2.39-2.85,2.39-4.9
				c0-2.17-0.8-3.99-2.17-5.59C246.01,33.49,244.18,32.69,241.9,32.69z"/>
			<path fill="#FFFFFF" d="M634.43,96.16l-13.99-20.82c4.21-1.82,7.62-4.55,10.24-8.42c2.5-3.64,3.76-7.85,3.76-12.63
				c0-6.6-2.28-11.95-6.83-16.27c-4.55-4.32-10.35-6.49-17.29-6.49h-31.63c-4.1,0-7.28,1.14-9.78,3.3c-2.5,2.28-3.76,5.12-3.76,8.76
				v57.68c0,5.01,2.62,7.51,8.08,7.51c5.35,0,8.08-2.5,8.08-7.51V77.73h21.16L621,105.03c1.59,2.39,3.75,3.64,6.48,3.64
				c2.05,0,3.98-0.8,5.8-2.28c1.71-1.59,2.62-3.3,2.62-5.57C635.91,99.23,635.45,97.75,634.43,96.16z M615.66,60.66
				c-1.82,1.48-4.21,2.16-7.05,2.16H581.3V49.97c0-2.5,0.91-3.76,2.96-3.76h24.35c6.49,0,9.78,2.73,9.78,8.19
				C618.39,57.13,617.48,59.29,615.66,60.66z"/>
			<path fill="#FFFFFF" d="M372.15,68.91l20.82-24.7c1.33-1.55,1.99-3.1,1.99-4.87c0-1.99-0.89-3.88-2.55-5.43
				c-1.77-1.44-3.66-2.22-5.65-2.22c-2.44,0-4.54,1-6.2,2.88l-18.72,22.26l-18.72-22.26c-1.66-1.88-3.66-2.88-6.09-2.88
				c-2.1,0-3.99,0.78-5.65,2.22c-1.77,1.55-2.55,3.32-2.55,5.43c0,1.77,0.55,3.32,1.88,4.87l20.82,24.7l-22.93,27.14
				c-1.33,1.55-1.99,3.21-1.99,4.87c0,2.22,0.77,3.88,2.55,5.43c1.66,1.55,3.54,2.33,5.76,2.33c2.33,0,4.32-1,6.09-2.99l20.82-24.7
				l20.93,24.7c1.66,1.99,3.88,2.99,6.54,2.99c1.99,0,3.88-0.78,5.54-2.33c1.55-1.55,2.33-3.32,2.33-5.32
				c0-1.77-0.66-3.43-1.99-4.98L372.15,68.91z"/>
			<path fill="#FFFFFF" d="M549.43,93.4h-41.29c-4.21,0-6.2-1.52-6.2-4.8V76.44h40.94c2.34,0,4.09-0.59,5.5-1.99
				c1.4-1.4,2.11-3.16,2.11-5.5c0-2.11-0.7-3.86-1.99-5.38c-1.4-1.4-3.16-2.22-5.26-2.22h-41.4v-9.59c0-2.11,0.35-3.51,1.17-4.21
				c0.7-0.7,2.22-1.05,4.44-1.05h40.82c1.99,0,3.74-0.7,5.26-2.11c1.4-1.4,2.22-3.04,2.22-4.91c0-2.34-0.7-4.21-1.99-5.73
				c-1.4-1.4-3.27-2.11-5.5-2.11h-50.64c-8.3,0-12.4,3.86-12.4,11.58v53.45c0,3.63,1.05,6.55,3.27,8.66
				c2.22,2.1,5.38,3.16,9.59,3.16h50.76c5.38,0,8.19-2.34,8.19-7.25c0-2.22-0.7-4.09-2.11-5.61C553.4,94.22,551.53,93.4,549.43,93.4
				z"/>
			<path fill="#FFFFFF" d="M469.5,93.4h-41.29c-4.21,0-6.2-1.52-6.2-4.8V76.44h40.94c2.34,0,4.09-0.59,5.5-1.99
				c1.4-1.4,2.11-3.16,2.11-5.5c0-2.11-0.7-3.86-1.99-5.38c-1.4-1.4-3.16-2.22-5.26-2.22h-41.4v-9.59c0-2.11,0.35-3.51,1.17-4.21
				c0.7-0.7,2.22-1.05,4.44-1.05h40.82c1.99,0,3.74-0.7,5.26-2.11c1.4-1.4,2.22-3.04,2.22-4.91c0-2.34-0.7-4.21-1.99-5.73
				c-1.4-1.4-3.27-2.11-5.5-2.11h-50.64c-8.3,0-12.4,3.86-12.4,11.58v53.45c0,3.63,1.05,6.55,3.27,8.66
				c2.22,2.1,5.38,3.16,9.59,3.16h50.76c5.38,0,8.19-2.34,8.19-7.25c0-2.22-0.7-4.09-2.11-5.61C473.48,94.22,471.61,93.4,469.5,93.4
				z"/>
		</g>
	</g>
	<g display="none">
		<g display="inline">
			<g>
				<path fill-rule="evenodd" fill="#D11E1B" d="M6.15,129.4c-2.48-2.48-3.71-5.6-3.71-9.39c0-3.49,1.24-6.48,3.71-8.96l30.13-30.13
					c2.48-2.48,3.72-5.61,3.72-9.39c0-3.5-1.24-6.48-3.72-8.95L6.15,32.44c-2.48-2.48-3.71-5.6-3.71-9.39
					c0-3.49,1.24-6.48,3.71-8.96l5.89-5.89c2.48-2.48,5.53-3.78,9.17-3.93c3.64,0.15,6.69,1.46,9.17,3.93l30.14,30.14
					c2.48,2.48,3.71,5.46,3.72,8.95c0,3.78-1.24,6.91-3.72,9.39l-5.68,5.68c-2.48,2.48-3.71,5.46-3.71,8.95
					c0,3.79,1.24,6.91,3.71,9.39l5.89,5.89c2.48,2.48,3.71,5.46,3.71,8.96c0,3.79-1.24,6.91-3.71,9.39l-30.35,30.35
					c-2.48,2.48-5.53,3.64-9.17,3.5c-3.64,0.15-6.7-1.02-9.17-3.5L6.15,129.4z"/>
			</g>
			<g>
				<path fill-rule="evenodd" fill="#267DC1" d="M134.54,12.13c2.48,2.48,3.71,5.6,3.71,9.39c0,3.49-1.24,6.48-3.71,8.96
					l-30.13,30.13c-2.48,2.48-3.72,5.61-3.72,9.39c0,3.5,1.24,6.48,3.72,8.95l30.14,30.14c2.48,2.48,3.71,5.6,3.71,9.39
					c0,3.49-1.24,6.48-3.71,8.96l-5.89,5.89c-2.48,2.48-5.53,3.78-9.17,3.93c-3.64-0.15-6.69-1.46-9.17-3.93L80.17,103.2
					c-2.48-2.48-3.71-5.46-3.72-8.95c0-3.78,1.24-6.91,3.72-9.39l5.68-5.68c2.48-2.48,3.71-5.46,3.71-8.95
					c0-3.79-1.24-6.91-3.71-9.39l-5.89-5.89c-2.48-2.48-3.71-5.46-3.71-8.96c0-3.79,1.24-6.91,3.71-9.39L110.3,6.24
					c2.48-2.48,5.53-3.64,9.17-3.5c3.64-0.15,6.7,1.02,9.17,3.5L134.54,12.13z"/>
			</g>
		</g>
		<g display="inline">
			<path fill="#131309" d="M290.22,31.7c-21.32,0-38.61,17.28-38.61,38.61s17.28,38.61,38.61,38.61c21.32,0,38.61-17.28,38.61-38.61
				S311.54,31.7,290.22,31.7z M290.22,92.34c-12.17,0-22.04-9.87-22.04-22.04c0-12.17,9.87-22.04,22.04-22.04
				s22.04,9.87,22.04,22.04C312.26,82.48,302.39,92.34,290.22,92.34z"/>
			<path fill="#131309" d="M241.9,32.69h-49.26c-7.87,0-11.74,3.54-11.74,10.38v58.38c0,5.7,2.74,8.55,8.21,8.55
				c5.24,0,7.98-2.85,7.98-8.55V81.49h39c5.13,0,7.75-2.39,7.75-7.3c0-2.05-0.68-3.88-2.05-5.36c-1.37-1.37-3.19-2.05-5.36-2.05
				h-39.34V52.76c0-3.54,2.17-5.36,6.5-5.36h38.42c1.94,0,3.65-0.68,5.25-2.05c1.6-1.25,2.39-2.85,2.39-4.9
				c0-2.17-0.8-3.99-2.17-5.59C246.01,33.49,244.18,32.69,241.9,32.69z"/>
			<path fill="#131309" d="M634.43,96.16l-13.99-20.82c4.21-1.82,7.62-4.55,10.24-8.42c2.5-3.64,3.76-7.85,3.76-12.63
				c0-6.6-2.28-11.95-6.83-16.27c-4.55-4.32-10.35-6.49-17.29-6.49h-31.63c-4.1,0-7.28,1.14-9.78,3.3c-2.5,2.28-3.76,5.12-3.76,8.76
				v57.68c0,5.01,2.62,7.51,8.08,7.51c5.35,0,8.08-2.5,8.08-7.51V77.73h21.16L621,105.03c1.59,2.39,3.75,3.64,6.48,3.64
				c2.05,0,3.98-0.8,5.8-2.28c1.71-1.59,2.62-3.3,2.62-5.57C635.91,99.23,635.45,97.75,634.43,96.16z M615.66,60.66
				c-1.82,1.48-4.21,2.16-7.05,2.16H581.3V49.97c0-2.5,0.91-3.76,2.96-3.76h24.35c6.49,0,9.78,2.73,9.78,8.19
				C618.39,57.13,617.48,59.29,615.66,60.66z"/>
			<path fill="#131309" d="M372.15,68.91l20.82-24.7c1.33-1.55,1.99-3.1,1.99-4.87c0-1.99-0.89-3.88-2.55-5.43
				c-1.77-1.44-3.66-2.22-5.65-2.22c-2.44,0-4.54,1-6.2,2.88l-18.72,22.26l-18.72-22.26c-1.66-1.88-3.66-2.88-6.09-2.88
				c-2.1,0-3.99,0.78-5.65,2.22c-1.77,1.55-2.55,3.32-2.55,5.43c0,1.77,0.55,3.32,1.88,4.87l20.82,24.7l-22.93,27.14
				c-1.33,1.55-1.99,3.21-1.99,4.87c0,2.22,0.77,3.88,2.55,5.43c1.66,1.55,3.54,2.33,5.76,2.33c2.33,0,4.32-1,6.09-2.99l20.82-24.7
				l20.93,24.7c1.66,1.99,3.88,2.99,6.54,2.99c1.99,0,3.88-0.78,5.54-2.33c1.55-1.55,2.33-3.32,2.33-5.32
				c0-1.77-0.66-3.43-1.99-4.98L372.15,68.91z"/>
			<path fill="#131309" d="M549.43,93.4h-41.29c-4.21,0-6.2-1.52-6.2-4.8V76.44h40.94c2.34,0,4.09-0.59,5.5-1.99
				c1.4-1.4,2.11-3.16,2.11-5.5c0-2.11-0.7-3.86-1.99-5.38c-1.4-1.4-3.16-2.22-5.26-2.22h-41.4v-9.59c0-2.11,0.35-3.51,1.17-4.21
				c0.7-0.7,2.22-1.05,4.44-1.05h40.82c1.99,0,3.74-0.7,5.26-2.11c1.4-1.4,2.22-3.04,2.22-4.91c0-2.34-0.7-4.21-1.99-5.73
				c-1.4-1.4-3.27-2.11-5.5-2.11h-50.64c-8.3,0-12.4,3.86-12.4,11.58v53.45c0,3.63,1.05,6.55,3.27,8.66
				c2.22,2.1,5.38,3.16,9.59,3.16h50.76c5.38,0,8.19-2.34,8.19-7.25c0-2.22-0.7-4.09-2.11-5.61C553.4,94.22,551.53,93.4,549.43,93.4
				z"/>
			<path fill="#131309" d="M469.5,93.4h-41.29c-4.21,0-6.2-1.52-6.2-4.8V76.44h40.94c2.34,0,4.09-0.59,5.5-1.99
				c1.4-1.4,2.11-3.16,2.11-5.5c0-2.11-0.7-3.86-1.99-5.38c-1.4-1.4-3.16-2.22-5.26-2.22h-41.4v-9.59c0-2.11,0.35-3.51,1.17-4.21
				c0.7-0.7,2.22-1.05,4.44-1.05h40.82c1.99,0,3.74-0.7,5.26-2.11c1.4-1.4,2.22-3.04,2.22-4.91c0-2.34-0.7-4.21-1.99-5.73
				c-1.4-1.4-3.27-2.11-5.5-2.11h-50.64c-8.3,0-12.4,3.86-12.4,11.58v53.45c0,3.63,1.05,6.55,3.27,8.66
				c2.22,2.1,5.38,3.16,9.59,3.16h50.76c5.38,0,8.19-2.34,8.19-7.25c0-2.22-0.7-4.09-2.11-5.61C473.48,94.22,471.61,93.4,469.5,93.4
				z"/>
		</g>
	</g>
</g>
</svg>
