<?xml version="1.0" encoding="utf-8"?>
<!-- Generator: Adobe Illustrator 24.0.0, SVG Export Plug-In . SVG Version: 6.00 Build 0)  -->
<svg version="1.2" baseProfile="tiny" id="图层_1"
	 xmlns="http://www.w3.org/2000/svg" xmlns:xlink="http://www.w3.org/1999/xlink" x="0px" y="0px" width="519.87px"
	 height="130.84px" viewBox="0 0 519.87 130.84" xml:space="preserve">
<g>
	<path fill-rule="evenodd" fill="#040000" d="M231.7,12.73c-7.85-0.86-15.14-2.56-22.12-4.77c-4.01,4.79-7,8.7-10.1,14.21
		c7.01,2.09,14.32,3.73,22.09,4.61C224.64,21.21,227.58,17.47,231.7,12.73z"/>
	<path fill-rule="evenodd" fill="#040000" d="M176.4,19.09c2.94-5.15,6.68-10.34,10.81-15.53c-7.83-0.89-16.41-0.61-25.69,0.76
		c-4.02,5.22-7.71,10.43-10.73,15.61C160.04,18.55,168.59,18.25,176.4,19.09z"/>
	<path fill-rule="evenodd" fill="#040000" d="M132.14,10.84c-10.28,2.93-20.35,5.51-30.21,7.46c-3.49,5.13-6.76,9.88-10.07,15.32
		c9.63-1.98,19.68-4.62,29.97-7.63C125.11,20.5,128.34,15.92,132.14,10.84z"/>
	<path fill-rule="evenodd" fill="#040000" d="M52.67,16.88c-3.45,5.15-6.76,10.17-10.07,15.42c7.69,1.03,15.49,1.89,23.48,2.46
		c3.3-5.32,6.58-10.19,10.13-15.3C68.17,18.88,60.35,17.99,52.67,16.88z"/>
	<path fill-rule="evenodd" fill="#040000" d="M196.25,35.76c1.09-4.36,1.71-8.61,3.23-13.59c-7.09-1.96-15.73-1.51-23.07-3.08
		c-1.85,5.11-3.31,10.21-5.15,15.33C179.37,35.22,188.31,34.7,196.25,35.76z"/>
	<path fill-rule="evenodd" fill="#040000" d="M33.18,47.65c-3.4,5.22-6.86,10.54-10.3,15.83c7.76,1,15.53,1.9,23.38,2.57
		c3.47-5.4,6.98-10.85,10.36-16.11C48.74,49.39,40.96,48.59,33.18,47.65z"/>
	<path fill-rule="evenodd" fill="#040000" d="M2.51,94.81c7.8,1,15.6,1.98,23.47,2.8c2.94-5.27,5.98-10.7,9.3-15.74
		c-7.8-0.75-15.47-1.69-23.11-2.7C8.85,84.28,5.65,89.59,2.51,94.81z"/>
	<polygon fill-rule="evenodd" fill="#040000" points="195.87,80.07 197.8,70.65 164.41,70.65 162.47,80.07 	"/>
	<polygon fill-rule="evenodd" fill="#040000" points="260.4,95.36 268.59,55.35 257.43,55.35 234.03,78.48 220.19,55.35 
		208.94,55.35 200.74,95.36 211.45,95.36 216.46,71.01 230.69,94.75 254.67,71.01 249.69,95.36 	"/>
	<path fill-rule="evenodd" fill="#040000" d="M313.88,94.1l2.21-1.02l2.11-1.28l1.86-1.5l1.56-1.64l1.25-1.81l0.93-1.97l0.61-2.11
		l3.04-14.72l0.25-2.08l-0.16-1.95l-0.5-1.81l-0.88-1.67l-1.24-1.53l-1.58-1.3l-1.78-1.02l-1.98-0.74l-2.18-0.44l-2.36-0.15h-26.98
		l-2.46,0.15l-2.38,0.44l-2.28,0.74l-2.18,1.02l-2.06,1.3l-1.9,1.53l-1.56,1.67l-1.25,1.81l-0.92,1.95l-0.59,2.08l-3.02,14.72
		l-0.26,2.19l0.12,1.96l0.51,1.78l0.87,1.61l1.27,1.5l1.54,1.28l1.76,1.02l2,0.71l2.2,0.42l2.41,0.13h26.96l2.44-0.13l2.36-0.42
		L313.88,94.1z M310.9,85.76l-0.86,0.19l-1.29,0.08h-26.97l-0.55-0.02l-0.88-0.09l-0.69-0.17l-0.52-0.23l-0.38-0.28l-0.29-0.32
		l-0.21-0.34l-0.14-0.46l-0.05-0.56l0.09-0.78l3.01-14.72l0.25-0.81l0.29-0.6l0.34-0.47l0.38-0.36l0.43-0.33l0.53-0.28l0.62-0.22
		l0.87-0.19l1.25-0.09h26.97l1.34,0.11l0.69,0.17l0.54,0.24l0.4,0.28l0.31,0.32l0.21,0.38l0.15,0.46l0.04,0.58l-0.07,0.8
		l-3.03,14.72l-0.26,0.86l-0.3,0.56l-0.32,0.44l-0.36,0.35l-0.42,0.31l-0.5,0.26L310.9,85.76z"/>
	<path fill-rule="evenodd" fill="#040000" d="M445.12,65.97l-0.13-1.95l-0.51-1.81l-0.89-1.67l-1.25-1.53l-1.57-1.3l-1.79-1.02
		l-1.97-0.74l-2.17-0.44l-2.38-0.15H405.5l-2.48,0.15l-2.38,0.44l-2.28,0.74l-2.17,1.02l-2.07,1.3l-1.89,1.53l-1.57,1.67l-1.25,1.81
		l-0.92,1.95l-0.59,2.08l-3.01,14.72l-0.28,2.19l0.14,1.96l0.5,1.78l0.88,1.61l1.29,1.5l1.53,1.28l1.77,1.02l1.97,0.71l2.2,0.42
		l2.42,0.13h26.98l2.41-0.13l2.36-0.42l2.28-0.71l2.19-1.02l2.11-1.28l1.87-1.5l1.54-1.64l1.27-1.81l0.94-1.97l0.62-2.11l3-14.72
		L445.12,65.97z M434.15,68.05l-3,14.72l-0.28,0.86l-0.27,0.56l-0.33,0.44l-0.36,0.35l-0.43,0.31l-0.51,0.26l-0.61,0.21l-0.88,0.19
		l-1.29,0.08h-26.95l-0.56-0.02l-0.88-0.09l-0.69-0.17l-0.52-0.23l-0.38-0.28l-0.28-0.32l-0.2-0.34l-0.14-0.46l-0.06-0.56l0.1-0.78
		l3.01-14.72l0.25-0.81l0.3-0.6l0.33-0.47l0.38-0.36l0.44-0.33l0.52-0.28l0.63-0.22l0.87-0.19l1.28-0.09h26.95l1.34,0.11l0.71,0.17
		l0.54,0.24l0.4,0.28l0.29,0.32l0.24,0.38l0.14,0.46l0.05,0.58L434.15,68.05z"/>
	<polygon fill-rule="evenodd" fill="#040000" points="460.74,64.7 493.97,64.7 494.33,64.72 494.78,64.81 495.14,64.93 
		495.42,65.12 495.7,65.35 495.93,65.67 496.1,66.1 496.24,66.76 496.22,67.85 495.93,69.41 495.48,70.71 495.1,71.41 494.74,71.9 
		494.37,72.23 494.05,72.49 493.68,72.68 493.27,72.82 492.84,72.92 492.26,72.95 464.67,72.95 483.04,95.36 497.69,95.36 
		486.88,82.3 490.98,82.3 493.17,82.16 495.29,81.73 497.08,81.08 498.77,80.23 500.55,79 502.25,77.43 503.66,75.79 504.83,74.03 
		505.78,72.11 506.5,70.05 506.95,67.91 507.1,65.86 506.98,63.94 506.56,62.14 505.88,60.45 504.89,58.86 503.58,57.53 
		502.25,56.64 500.74,55.99 498.82,55.53 496.5,55.35 451.95,55.35 443.74,95.36 454.46,95.36 	"/>
	<polygon fill-rule="evenodd" fill="#040000" points="357.74,95.36 364.03,64.71 384.75,64.71 386.67,55.35 334.51,55.35 
		332.58,64.71 353.31,64.71 347.02,95.36 	"/>
	<path fill-rule="evenodd" fill="#040000" d="M510.03,36.46H138.67c1.75-0.32,3.52-0.66,5.33-1.05c2.89-5.18,4.68-10.32,6.8-15.48
		c-9.76,2.19-18.89,3.39-28.97,6.06c-1.66,3.63-3.19,7.06-5.03,10.46H90.21c0.55-0.94,1.11-1.88,1.65-2.83
		c-9.32,1.05-17.56,1.33-25.79,1.13c-3.02,5.17-6.23,10.17-9.44,15.17c4.82,0.11,9.72,0.05,14.96-0.25v15.64
		c-9.37,0.9-17.46,1.03-25.33,0.71c-3.47,5.4-7.36,10.71-10.99,15.82c8.01,0.41,16.33,0.36,25.15-0.48
		c3.63-4.89,7.63-10.06,11.17-15.35v45.55c0,2.92,2.57,5.3,5.72,5.3h224.86v-1.97H154.92V38.44h355.11c2.07,0,3.75,1.49,3.75,3.32
		v69.83c0,1.83-1.68,3.33-3.75,3.33h-29.77v1.97h29.77c3.16,0,5.72-2.38,5.72-5.3V41.76C515.76,38.84,513.19,36.46,510.03,36.46z
		 M139.55,58.52l-0.57,0.06l-0.57,0.05l-0.57,0.07l-0.57,0.06l-0.57,0.08l-0.57,0.08l-0.57,0.08l-0.57,0.1l-0.56,0.1l-0.57,0.1
		l-0.56,0.11l-0.57,0.12l-0.56,0.11l-0.56,0.13l-0.56,0.13l-0.56,0.14l-0.55,0.13l-0.55,0.15l-0.55,0.16l-0.55,0.15l-0.55,0.16
		l-0.55,0.17l-0.54,0.17l-0.54,0.18l-0.55,0.18l-0.54,0.18l-0.54,0.2l-0.53,0.18l-0.53,0.22l-0.53,0.2l-0.53,0.21l-0.52,0.21
		l-0.52,0.22l-0.51,0.23l-0.51,0.23l-0.51,0.23l-0.5,0.25l-0.51,0.23l-0.5,0.25l-0.5,0.25l-0.49,0.25l-0.49,0.26l-0.48,0.27
		l-0.48,0.27l-0.47,0.27l-0.48,0.27l-0.46,0.28l-0.47,0.28l-0.46,0.28l-0.45,0.28l-0.45,0.3l-0.44,0.3l-0.44,0.3l-0.44,0.3
		L110.85,69l-0.43,0.31L110,69.61l-0.41,0.32l-0.41,0.32l-0.41,0.31l-0.4,0.33l-0.39,0.33l-0.38,0.33l-0.39,0.34l-0.38,0.33
		l-0.37,0.34l-0.36,0.35l-0.35,0.34l-0.36,0.36l-0.34,0.34l-0.34,0.35l-0.33,0.35l-0.32,0.35l-0.32,0.37l-0.31,0.36l-0.31,0.35
		l-0.29,0.37l-0.29,0.36l-0.28,0.36l-0.27,0.38l2.92-11.94H88.24l2.68-10.69h50.07l-2.68,10.69h-16.7l-8.04,32H96.88l0.14-0.58
		l0.24-0.61l0.27-0.63l0.22-0.46l0.21-0.46l0.22-0.47l0.23-0.48l0.24-0.5l0.24-0.5l0.24-0.5l0.24-0.52l0.26-0.51l0.26-0.51
		l0.27-0.54l0.28-0.52l0.28-0.55l0.29-0.54l0.29-0.56l0.3-0.56l0.31-0.55l0.32-0.55l0.32-0.56l0.33-0.57l0.34-0.58l0.35-0.58
		l0.35-0.58l0.36-0.57l0.38-0.58l0.38-0.58l0.39-0.58l0.4-0.57l0.41-0.58l0.42-0.58L107.1,79l0.44-0.57l0.45-0.58l0.46-0.57
		l0.47-0.58l0.49-0.57l0.49-0.58l0.51-0.55l0.51-0.57l0.53-0.56l0.54-0.55l0.55-0.55l0.56-0.55l0.58-0.55l0.59-0.54l0.61-0.54
		l0.62-0.53l0.62-0.52l0.63-0.52l0.66-0.5l0.67-0.51l0.68-0.49l0.7-0.49l0.71-0.48l0.72-0.48l0.74-0.46l0.76-0.46l0.77-0.44
		l0.78-0.44l0.81-0.43l0.81-0.42l0.84-0.42l0.84-0.39l0.87-0.4l0.88-0.36l0.9-0.36l0.9-0.37l0.94-0.34l0.95-0.34l0.96-0.31
		l0.98-0.31l1-0.29l1.02-0.27l1.04-0.27l1.06-0.25l1.07-0.23H139.55z"/>
	<path fill-rule="evenodd" fill="#040000" d="M333.03,110.39h-11.85l2.53-8.43h-6.51l-6.98,23.31h6.51l2.52-8.43h11.85l-2.53,8.43
		h6.51l6.98-23.31h-6.51L333.03,110.39z M340.3,103.28l-6.19,20.68h-3.76l2.52-8.43h-14.6l-2.52,8.43h-3.76l6.19-20.68h3.76
		l-2.52,8.43h14.6l2.53-8.43H340.3z"/>
	<path fill-rule="evenodd" fill="#040000" d="M366.18,107.1h-12.92c-1.66,0-2.78,0.8-3.23,2.3l-2.41,8.06
		c-0.24,0.8-0.18,1.44,0.18,1.92c0.37,0.5,1.03,0.76,1.96,0.76h12.92c1.67,0,2.78-0.8,3.23-2.3l2.41-8.06
		c0.24-0.8,0.18-1.44-0.18-1.92C367.76,107.35,367.1,107.1,366.18,107.1z M367.05,109.4l-2.41,8.06c-0.28,0.94-0.89,1.36-1.97,1.36
		h-12.92c-0.46,0-0.79-0.08-0.9-0.23c-0.09-0.12-0.08-0.4,0.03-0.76l2.41-8.06c0.28-0.94,0.89-1.36,1.97-1.36h12.92
		c0.46,0,0.8,0.08,0.9,0.23C367.17,108.76,367.16,109.04,367.05,109.4z"/>
	<path fill-rule="evenodd" fill="#040000" d="M367.71,101.96h-12.92c-2.13,0-4.18,0.71-6.08,2.12c-1.9,1.4-3.19,3.19-3.83,5.32
		l-2.42,8.07c-0.66,2.2-0.42,4.07,0.71,5.56c1.13,1.49,2.82,2.25,5.02,2.25h12.92c2.13,0,4.18-0.71,6.08-2.11
		c1.9-1.41,3.19-3.19,3.83-5.32l2.42-8.07c0.66-2.2,0.42-4.07-0.71-5.56C371.61,102.72,369.92,101.96,367.71,101.96z M372.19,109.39
		l-2.42,8.07c-0.55,1.84-1.68,3.4-3.35,4.64c-1.67,1.23-3.45,1.86-5.3,1.86H348.2c-1.8,0-3.1-0.56-3.97-1.72
		c-0.88-1.16-1.04-2.59-0.5-4.39l2.42-8.07c0.55-1.84,1.68-3.4,3.35-4.63c1.67-1.23,3.45-1.86,5.3-1.86h12.92
		c1.79,0,3.09,0.56,3.97,1.72C372.56,106.16,372.73,107.6,372.19,109.39z"/>
	<path fill-rule="evenodd" fill="#040000" d="M406.91,104.15c-0.89-1.46-2.45-2.2-4.62-2.2h-21.46l-6.98,23.31h22.24
		c2.09,0,3.97-0.68,5.6-2.03c1.49-1.22,2.52-2.73,3.05-4.51c0.66-2.19,0.4-3.93-0.74-5.19c1.6-1.18,2.69-2.75,3.27-4.67
		C407.82,107.04,407.7,105.46,406.91,104.15z M406.01,108.49c-0.57,1.91-1.69,3.35-3.42,4.41l-0.82,0.5l0.77,0.58
		c1.23,0.94,1.54,2.37,0.94,4.37c-0.45,1.51-1.34,2.82-2.63,3.87c-1.41,1.16-2.97,1.73-4.77,1.73h-20.47l6.19-20.68h20.48
		c1.71,0,2.85,0.51,3.5,1.56C406.38,105.82,406.45,107.02,406.01,108.49z"/>
	<path fill-rule="evenodd" fill="#040000" d="M400.75,107.1h-16.32l-1.38,4.61h16.72c0.73,0,1.71-0.37,2.24-2.12
		c0.27-0.89,0.23-1.53-0.1-1.98C401.73,107.38,401.39,107.1,400.75,107.1z M400.74,109.21c-0.35,1.18-0.82,1.18-0.98,1.18h-14.95
		l0.59-1.98h15.34c0.05,0,0.08,0,0.1,0.01C400.87,108.49,400.89,108.71,400.74,109.21z"/>
	<path fill-rule="evenodd" fill="#040000" d="M398.57,115.53H381.9l-1.38,4.61h17.06c0.73,0,1.71-0.37,2.23-2.12
		c0.27-0.89,0.23-1.53-0.1-1.98C399.55,115.81,399.21,115.53,398.57,115.53z M398.56,117.64c-0.35,1.18-0.82,1.18-0.97,1.18h-15.29
		l0.59-1.98h15.69c0.05,0,0.08,0,0.1,0.01C398.69,116.92,398.71,117.14,398.56,117.64z"/>
	<path fill-rule="evenodd" fill="#040000" d="M434.18,107.1h-16.32l-1.38,4.61h16.72c0.73,0,1.71-0.37,2.24-2.12
		c0.27-0.89,0.23-1.53-0.1-1.98C435.15,107.38,434.81,107.1,434.18,107.1z M434.16,109.21c-0.35,1.18-0.82,1.18-0.97,1.18h-14.95
		l0.59-1.98h15.34c0.05,0,0.08,0,0.1,0.01C434.29,108.49,434.31,108.71,434.16,109.21z"/>
	<path fill-rule="evenodd" fill="#040000" d="M435.71,101.96h-21.46l-6.98,23.31h22.24c2.09,0,3.97-0.68,5.6-2.03
		c1.49-1.22,2.52-2.73,3.05-4.51c0.65-2.19,0.4-3.93-0.74-5.19c1.6-1.18,2.69-2.75,3.27-4.67c0.55-1.83,0.43-3.41-0.36-4.72
		C439.44,102.7,437.89,101.96,435.71,101.96z M439.43,108.49c-0.57,1.91-1.69,3.35-3.42,4.41l-0.82,0.5l0.77,0.58
		c1.23,0.94,1.54,2.37,0.94,4.37c-0.45,1.51-1.34,2.82-2.63,3.87c-1.41,1.16-2.97,1.73-4.76,1.73h-20.47l6.19-20.68h20.48
		c1.71,0,2.85,0.51,3.5,1.56C439.8,105.82,439.87,107.02,439.43,108.49z"/>
	<path fill-rule="evenodd" fill="#040000" d="M432,115.53h-16.67l-1.38,4.61h17.06c0.73,0,1.71-0.37,2.23-2.12
		c0.27-0.89,0.23-1.53-0.1-1.98C432.97,115.81,432.63,115.53,432,115.53z M431.98,117.64c-0.35,1.18-0.82,1.18-0.97,1.18h-15.29
		l0.59-1.98H432c0.05,0,0.08,0,0.1,0.01C432.11,116.92,432.13,117.14,431.98,117.64z"/>
	<path fill-rule="evenodd" fill="#040000" d="M467.32,109.23c-0.35,1.16-0.78,1.16-0.93,1.16h-14.55c-0.03,0-0.05,0-0.07,0
		c-0.01-0.08-0.02-0.3,0.12-0.77l2.29-7.65h-6.51l-2.18,7.27c-0.61,2.03-0.48,3.79,0.36,5.22c0.88,1.59,2.38,2.39,4.45,2.39h3.87
		l-2.52,8.43h6.51l2.52-8.43h4.17c1.98,0,3.86-0.74,5.58-2.21c1.59-1.36,2.69-3.05,3.28-5.02l2.29-7.65h-6.51L467.32,109.23z
		 M474.24,103.28l-1.78,5.96c-0.52,1.72-1.48,3.2-2.88,4.4c-1.48,1.26-3.07,1.9-4.72,1.9h-5.16l-2.52,8.43h-3.76l2.52-8.43h-5.63
		c-1.58,0-2.66-0.56-3.31-1.73c-0.67-1.13-0.74-2.5-0.24-4.18l1.9-6.34h3.76l-1.78,5.96c-0.26,0.88-0.24,1.53,0.09,1.96
		c0.17,0.23,0.51,0.51,1.12,0.51h14.55c0.71,0,1.67-0.36,2.19-2.1l1.9-6.34H474.24z"/>
</g>
</svg>
